<mxfile host="app.diagrams.net" modified="2023-01-30T10:06:16.874Z" agent="5.0 (Macintosh; Intel Mac OS X 10_15_7) AppleWebKit/605.1.15 (KHTML, like Gecko) Version/15.6.1 Safari/605.1.15" etag="eYhcO-8quwmEHjx6z0nH" version="20.8.13" type="github">
  <diagram id="OD2B63ExEwJ68oSrJbLe" name="Page-1">
    <mxGraphModel dx="3585" dy="1555" grid="0" gridSize="10" guides="1" tooltips="1" connect="1" arrows="1" fold="1" page="0" pageScale="1" pageWidth="827" pageHeight="1169" math="0" shadow="0">
      <root>
        <mxCell id="0" />
        <mxCell id="1" parent="0" />
        <mxCell id="MXfahMEFqm9Rea4sAVrW-13" style="edgeStyle=orthogonalEdgeStyle;rounded=0;orthogonalLoop=1;jettySize=auto;html=1;exitX=0.625;exitY=0.2;exitDx=0;exitDy=0;exitPerimeter=0;entryX=0.4;entryY=0.1;entryDx=0;entryDy=0;entryPerimeter=0;fontSize=18;curved=1;" edge="1" parent="1" target="MXfahMEFqm9Rea4sAVrW-12">
          <mxGeometry relative="1" as="geometry">
            <mxPoint x="725" y="375" as="sourcePoint" />
            <Array as="points">
              <mxPoint x="730" y="302" />
              <mxPoint x="969" y="302" />
            </Array>
          </mxGeometry>
        </mxCell>
        <mxCell id="MXfahMEFqm9Rea4sAVrW-69" value="&lt;h1&gt;Analytics Manager&lt;/h1&gt;&lt;h1&gt;&lt;font size=&quot;4&quot;&gt;Functional Requirements&lt;/font&gt;&lt;/h1&gt;&lt;div&gt;&lt;font size=&quot;4&quot;&gt;&lt;span style=&quot;font-weight: 400;&quot;&gt;1. It is library&lt;/span&gt;&lt;/font&gt;&lt;/div&gt;&lt;div&gt;&lt;font size=&quot;4&quot;&gt;&lt;span style=&quot;font-weight: 400;&quot;&gt;2. Category and Engine based anaytics trigger support&lt;/span&gt;&lt;/font&gt;&lt;/div&gt;&lt;div&gt;&lt;font size=&quot;4&quot;&gt;&lt;span style=&quot;font-weight: 400;&quot;&gt;&amp;nbsp;&amp;gt; Maketing/Revenue : Adobe&lt;/span&gt;&lt;/font&gt;&lt;/div&gt;&lt;div&gt;&lt;font size=&quot;4&quot;&gt;&lt;span style=&quot;font-weight: 400;&quot;&gt;&amp;nbsp;&amp;gt; UI : Firebase&lt;/span&gt;&lt;/font&gt;&lt;/div&gt;&lt;div&gt;&lt;font size=&quot;4&quot;&gt;&lt;span style=&quot;font-weight: 400;&quot;&gt;&amp;nbsp;&amp;gt; Performance: Splunk&amp;nbsp;&lt;/span&gt;&lt;/font&gt;&lt;/div&gt;&lt;div&gt;&lt;font size=&quot;4&quot;&gt;&lt;span style=&quot;font-weight: 400;&quot;&gt;2.1 Configurration Engines&lt;/span&gt;&lt;/font&gt;&lt;/div&gt;&lt;div&gt;3. Trigger Events&amp;nbsp;&lt;/div&gt;&lt;div&gt;4. Print logs&lt;/div&gt;&lt;div&gt;&lt;br&gt;&lt;/div&gt;&lt;div&gt;&lt;b&gt;Non functional Requirements&lt;/b&gt;&lt;/div&gt;&lt;div&gt;1. Network Service&lt;/div&gt;&lt;div&gt;2. Performance/CPU/Memory Usage&lt;/div&gt;&lt;div&gt;3. Optimal Internet Usage&lt;/div&gt;&lt;div&gt;&lt;br&gt;&lt;/div&gt;&lt;div&gt;&lt;b&gt;Out of scope&lt;/b&gt;&lt;/div&gt;&lt;div&gt;1. Caching&lt;/div&gt;&lt;div&gt;2. Adding Support New Engines&lt;/div&gt;&lt;div&gt;3. Store Logs in storage&lt;b&gt;&lt;br&gt;&lt;/b&gt;&lt;/div&gt;&lt;div&gt;&lt;br&gt;&lt;/div&gt;&lt;div&gt;&lt;b&gt;Assumptions&lt;/b&gt;&lt;/div&gt;&lt;div&gt;1. Variations device&lt;/div&gt;&lt;div&gt;2. DAU: 1 million&lt;/div&gt;&lt;div&gt;3.&amp;nbsp;&lt;/div&gt;&lt;div&gt;&lt;font size=&quot;4&quot;&gt;&lt;span style=&quot;font-weight: 400;&quot;&gt;&lt;br&gt;&lt;/span&gt;&lt;/font&gt;&lt;/div&gt;&lt;div&gt;&lt;font size=&quot;4&quot;&gt;&lt;span style=&quot;font-weight: 400;&quot;&gt;&lt;br&gt;&lt;/span&gt;&lt;/font&gt;&lt;/div&gt;&lt;div&gt;&lt;font size=&quot;4&quot;&gt;&lt;span style=&quot;font-weight: 400;&quot;&gt;&lt;br&gt;&lt;/span&gt;&lt;/font&gt;&lt;/div&gt;" style="text;html=1;strokeColor=#666666;fillColor=#f5f5f5;spacing=5;spacingTop=-20;whiteSpace=wrap;overflow=hidden;rounded=0;fontSize=18;fontColor=#333333;" vertex="1" parent="1">
          <mxGeometry x="-835" y="316" width="352" height="710" as="geometry" />
        </mxCell>
        <mxCell id="MXfahMEFqm9Rea4sAVrW-85" style="edgeStyle=orthogonalEdgeStyle;curved=1;rounded=0;orthogonalLoop=1;jettySize=auto;html=1;exitX=0.75;exitY=1;exitDx=0;exitDy=0;entryX=0.75;entryY=0;entryDx=0;entryDy=0;fontSize=18;" edge="1" parent="1" source="MXfahMEFqm9Rea4sAVrW-70" target="MXfahMEFqm9Rea4sAVrW-83">
          <mxGeometry relative="1" as="geometry" />
        </mxCell>
        <mxCell id="MXfahMEFqm9Rea4sAVrW-70" value="Analytics Manager" style="rounded=1;whiteSpace=wrap;html=1;fontSize=18;" vertex="1" parent="1">
          <mxGeometry x="74" y="786" width="120" height="60" as="geometry" />
        </mxCell>
        <mxCell id="MXfahMEFqm9Rea4sAVrW-78" style="edgeStyle=orthogonalEdgeStyle;curved=1;rounded=0;orthogonalLoop=1;jettySize=auto;html=1;entryX=0.5;entryY=0;entryDx=0;entryDy=0;fontSize=18;" edge="1" parent="1" source="MXfahMEFqm9Rea4sAVrW-71" target="MXfahMEFqm9Rea4sAVrW-73">
          <mxGeometry relative="1" as="geometry" />
        </mxCell>
        <mxCell id="MXfahMEFqm9Rea4sAVrW-71" value="Engine 1" style="rounded=1;whiteSpace=wrap;html=1;fontSize=18;" vertex="1" parent="1">
          <mxGeometry x="-28" y="484" width="120" height="60" as="geometry" />
        </mxCell>
        <mxCell id="MXfahMEFqm9Rea4sAVrW-79" style="edgeStyle=orthogonalEdgeStyle;curved=1;rounded=0;orthogonalLoop=1;jettySize=auto;html=1;entryX=0.5;entryY=0;entryDx=0;entryDy=0;fontSize=18;" edge="1" parent="1" source="MXfahMEFqm9Rea4sAVrW-72" target="MXfahMEFqm9Rea4sAVrW-74">
          <mxGeometry relative="1" as="geometry" />
        </mxCell>
        <mxCell id="MXfahMEFqm9Rea4sAVrW-72" value="Engine &amp;nbsp;2" style="rounded=1;whiteSpace=wrap;html=1;fontSize=18;" vertex="1" parent="1">
          <mxGeometry x="171" y="486" width="120" height="60" as="geometry" />
        </mxCell>
        <mxCell id="MXfahMEFqm9Rea4sAVrW-76" style="edgeStyle=orthogonalEdgeStyle;curved=1;rounded=0;orthogonalLoop=1;jettySize=auto;html=1;exitX=0.25;exitY=1;exitDx=0;exitDy=0;entryX=0.25;entryY=0;entryDx=0;entryDy=0;fontSize=18;" edge="1" parent="1" source="MXfahMEFqm9Rea4sAVrW-73" target="MXfahMEFqm9Rea4sAVrW-70">
          <mxGeometry relative="1" as="geometry" />
        </mxCell>
        <mxCell id="MXfahMEFqm9Rea4sAVrW-73" value="Engine 1&lt;br&gt;Analytics Manager" style="rounded=1;whiteSpace=wrap;html=1;fontSize=18;" vertex="1" parent="1">
          <mxGeometry x="-28" y="656" width="120" height="60" as="geometry" />
        </mxCell>
        <mxCell id="MXfahMEFqm9Rea4sAVrW-77" style="edgeStyle=orthogonalEdgeStyle;curved=1;rounded=0;orthogonalLoop=1;jettySize=auto;html=1;exitX=0.75;exitY=1;exitDx=0;exitDy=0;entryX=0.75;entryY=0;entryDx=0;entryDy=0;fontSize=18;" edge="1" parent="1" source="MXfahMEFqm9Rea4sAVrW-74" target="MXfahMEFqm9Rea4sAVrW-70">
          <mxGeometry relative="1" as="geometry" />
        </mxCell>
        <mxCell id="MXfahMEFqm9Rea4sAVrW-74" value="Engine 2&lt;br&gt;Analytics Manager" style="rounded=1;whiteSpace=wrap;html=1;fontSize=18;" vertex="1" parent="1">
          <mxGeometry x="175" y="651" width="120" height="60" as="geometry" />
        </mxCell>
        <mxCell id="MXfahMEFqm9Rea4sAVrW-84" style="edgeStyle=orthogonalEdgeStyle;curved=1;rounded=0;orthogonalLoop=1;jettySize=auto;html=1;exitX=0.25;exitY=0;exitDx=0;exitDy=0;entryX=0.25;entryY=1;entryDx=0;entryDy=0;fontSize=18;" edge="1" parent="1" source="MXfahMEFqm9Rea4sAVrW-83" target="MXfahMEFqm9Rea4sAVrW-70">
          <mxGeometry relative="1" as="geometry" />
        </mxCell>
        <mxCell id="MXfahMEFqm9Rea4sAVrW-83" value="Configuration&lt;br&gt;using&lt;br&gt;(EngineType)" style="rounded=1;whiteSpace=wrap;html=1;fontSize=18;" vertex="1" parent="1">
          <mxGeometry x="100" y="915" width="174" height="101" as="geometry" />
        </mxCell>
        <mxCell id="MXfahMEFqm9Rea4sAVrW-100" style="edgeStyle=orthogonalEdgeStyle;curved=1;rounded=0;orthogonalLoop=1;jettySize=auto;html=1;exitX=0.25;exitY=0;exitDx=0;exitDy=0;entryX=0;entryY=0.25;entryDx=0;entryDy=0;fontSize=18;" edge="1" parent="1" source="MXfahMEFqm9Rea4sAVrW-86" target="MXfahMEFqm9Rea4sAVrW-70">
          <mxGeometry relative="1" as="geometry" />
        </mxCell>
        <mxCell id="MXfahMEFqm9Rea4sAVrW-86" value="Triggers&lt;br&gt;eventModel" style="rounded=1;whiteSpace=wrap;html=1;fontSize=18;" vertex="1" parent="1">
          <mxGeometry x="-59" y="921" width="120" height="60" as="geometry" />
        </mxCell>
        <mxCell id="MXfahMEFqm9Rea4sAVrW-90" value="&lt;h1&gt;EngineType&lt;br&gt;&lt;/h1&gt;&lt;div&gt;enum EngineType {&lt;/div&gt;&lt;div&gt;&lt;span style=&quot;&quot;&gt;	case Firebase(configType: ConfigType, categoryType:  [CategoryType])&lt;/span&gt;&lt;br&gt;&lt;/div&gt;&lt;div&gt;&lt;span style=&quot;&quot;&gt;&lt;span style=&quot;&quot;&gt;	case Adobe(apiKey: String, categoryType: [CT])&lt;/span&gt;&lt;br&gt;&lt;/span&gt;&lt;/div&gt;&lt;div&gt;}&lt;/div&gt;" style="text;html=1;strokeColor=#6c8ebf;fillColor=#dae8fc;spacing=5;spacingTop=-20;whiteSpace=wrap;overflow=hidden;rounded=0;fontSize=18;" vertex="1" parent="1">
          <mxGeometry x="-725" y="1096" width="480" height="189" as="geometry" />
        </mxCell>
        <mxCell id="MXfahMEFqm9Rea4sAVrW-92" value="&lt;h1&gt;CategoryType&lt;br&gt;&lt;/h1&gt;&lt;div&gt;enum CategoryType {&lt;/div&gt;&lt;div&gt;&lt;span style=&quot;white-space: pre;&quot;&gt;	case Marketing&lt;/span&gt;&lt;/div&gt;&lt;div&gt;&lt;span style=&quot;white-space: pre;&quot;&gt;&lt;span style=&quot;white-space: pre;&quot;&gt;	case Engineering&lt;/span&gt;&lt;br&gt;&lt;/span&gt;&lt;/div&gt;&lt;div&gt;&lt;span style=&quot;white-space: pre;&quot;&gt;&lt;span style=&quot;white-space: pre;&quot;&gt;&lt;span style=&quot;white-space: pre;&quot;&gt;	&lt;/span&gt;case UI &lt;/span&gt;&lt;/span&gt;&lt;/div&gt;&lt;div&gt;}&lt;/div&gt;" style="text;html=1;strokeColor=#6c8ebf;fillColor=#dae8fc;spacing=5;spacingTop=-20;whiteSpace=wrap;overflow=hidden;rounded=0;fontSize=18;" vertex="1" parent="1">
          <mxGeometry x="-725" y="1317" width="332" height="189" as="geometry" />
        </mxCell>
        <mxCell id="MXfahMEFqm9Rea4sAVrW-95" value="&lt;h1&gt;EventModel&lt;br&gt;&lt;/h1&gt;&lt;div&gt;struct EventModel {&lt;/div&gt;&lt;div&gt;&lt;span style=&quot;white-space: pre;&quot;&gt;	var name:  String&lt;/span&gt;&lt;br&gt;&lt;/div&gt;&lt;div&gt;&lt;span style=&quot;white-space: pre;&quot;&gt;&lt;span style=&quot;white-space: pre;&quot;&gt;	&lt;/span&gt;var value: Dictionary&lt;/span&gt;&lt;/div&gt;&lt;div&gt;&lt;span style=&quot;white-space: pre;&quot;&gt;&lt;span style=&quot;white-space: pre;&quot;&gt;&lt;b&gt;	var category: [CategoryType]&lt;/b&gt;&lt;/span&gt;&lt;br&gt;&lt;/span&gt;&lt;/div&gt;&lt;div&gt;}&lt;/div&gt;" style="text;html=1;strokeColor=#6c8ebf;fillColor=#dae8fc;spacing=5;spacingTop=-20;whiteSpace=wrap;overflow=hidden;rounded=0;fontSize=18;" vertex="1" parent="1">
          <mxGeometry x="-721" y="1574" width="332" height="189" as="geometry" />
        </mxCell>
        <mxCell id="MXfahMEFqm9Rea4sAVrW-96" value="AddCategoryFor&lt;br&gt;(EngineType, categoryName)" style="rounded=1;whiteSpace=wrap;html=1;fontSize=18;" vertex="1" parent="1">
          <mxGeometry x="328" y="915" width="168" height="60" as="geometry" />
        </mxCell>
        <mxCell id="MXfahMEFqm9Rea4sAVrW-99" style="edgeStyle=orthogonalEdgeStyle;curved=1;rounded=0;orthogonalLoop=1;jettySize=auto;html=1;exitX=0.25;exitY=0;exitDx=0;exitDy=0;entryX=0.25;entryY=1;entryDx=0;entryDy=0;fontSize=18;" edge="1" parent="1" source="MXfahMEFqm9Rea4sAVrW-98" target="MXfahMEFqm9Rea4sAVrW-86">
          <mxGeometry relative="1" as="geometry" />
        </mxCell>
        <mxCell id="MXfahMEFqm9Rea4sAVrW-98" value="Event&lt;br&gt;UI, Engineering" style="rounded=1;whiteSpace=wrap;html=1;fontSize=18;" vertex="1" parent="1">
          <mxGeometry x="6" y="1099" width="231" height="221" as="geometry" />
        </mxCell>
        <mxCell id="MXfahMEFqm9Rea4sAVrW-101" value="Configuration&lt;br&gt;Dict: [:]" style="rounded=1;whiteSpace=wrap;html=1;fontSize=18;" vertex="1" parent="1">
          <mxGeometry x="571" y="906" width="174" height="101" as="geometry" />
        </mxCell>
        <mxCell id="MXfahMEFqm9Rea4sAVrW-102" value="[&quot;UI&quot;: [Firebase, Splunk]]&lt;br&gt;" style="rounded=1;whiteSpace=wrap;html=1;fontSize=18;" vertex="1" parent="1">
          <mxGeometry x="550" y="1070" width="231" height="221" as="geometry" />
        </mxCell>
        <mxCell id="MXfahMEFqm9Rea4sAVrW-103" value="&lt;h1&gt;ConfigurationType&lt;br&gt;&lt;/h1&gt;&lt;div&gt;enum ConfigurationType {&lt;/div&gt;&lt;blockquote style=&quot;margin: 0 0 0 40px; border: none; padding: 0px;&quot;&gt;&lt;span style=&quot;white-space: pre;&quot;&gt;case file(fileURL: URL)&lt;/span&gt;&lt;/blockquote&gt;&lt;blockquote style=&quot;margin: 0 0 0 40px; border: none; padding: 0px;&quot;&gt;&lt;span style=&quot;white-space: pre;&quot;&gt;case apiKey(key: String)&lt;/span&gt;&lt;/blockquote&gt;&lt;div&gt;}&lt;/div&gt;" style="text;html=1;strokeColor=#6c8ebf;fillColor=#dae8fc;spacing=5;spacingTop=-20;whiteSpace=wrap;overflow=hidden;rounded=0;fontSize=18;" vertex="1" parent="1">
          <mxGeometry x="-725" y="1825" width="480" height="189" as="geometry" />
        </mxCell>
        <mxCell id="MXfahMEFqm9Rea4sAVrW-107" value="&lt;h1&gt;UI: [Firebase]&lt;/h1&gt;&lt;div&gt;&lt;h1 style=&quot;border-color: var(--border-color);&quot;&gt;Eng: [Splunk, CleverTap]&lt;/h1&gt;&lt;/div&gt;" style="text;html=1;strokeColor=#6c8ebf;fillColor=#dae8fc;spacing=5;spacingTop=-20;whiteSpace=wrap;overflow=hidden;rounded=0;fontSize=18;" vertex="1" parent="1">
          <mxGeometry x="-725" y="2046" width="480" height="189" as="geometry" />
        </mxCell>
      </root>
    </mxGraphModel>
  </diagram>
</mxfile>
